<svg width="16" height="23" viewBox="0 0 16 23" fill="none" xmlns="http://www.w3.org/2000/svg">
<path d="M7.01465 0.32724C7.38872 -0.109091 8.04585 -0.109091 8.41992 0.32724C10.2788 2.49559 15.1956 8.7599 15.4229 14.5587C15.43 14.6952 15.4346 14.8325 15.4346 14.9708C15.4346 19.2328 11.9797 22.6883 7.71777 22.6886C3.45563 22.6886 0 19.2329 0 14.9708C6.02991e-07 14.8325 0.00356158 14.6951 0.0107422 14.5587C0.237994 8.75989 5.15574 2.49559 7.01465 0.32724ZM5.14453 16.2569C4.43439 16.2571 3.85851 16.8329 3.8584 17.5431C3.8584 18.2533 4.43432 18.829 5.14453 18.8292C5.85489 18.8292 6.43066 18.2534 6.43066 17.5431C6.43056 16.8328 5.85482 16.2569 5.14453 16.2569Z" fill="#212842"/>
</svg>
