<svg width="27" height="27" viewBox="0 0 27 27" fill="none" xmlns="http://www.w3.org/2000/svg">
<g clip-path="url(#clip0_72_58)">
<path d="M20.1609 1.6931C20.1605 2.1405 19.9825 2.56944 19.6659 2.8856L11.0349 11.5166C10.7737 11.7778 10.5665 12.0879 10.4251 12.4291C10.2837 12.7704 10.2109 13.1362 10.2109 13.5056C10.2109 13.875 10.2837 14.2408 10.4251 14.5821C10.5665 14.9233 10.7737 15.2334 11.0349 15.4946L19.6547 24.1144C19.9621 24.4326 20.1322 24.8589 20.1283 25.3013C20.1245 25.7438 19.947 26.167 19.6341 26.4799C19.3213 26.7928 18.898 26.9703 18.4556 26.9741C18.0131 26.978 17.5868 26.8079 17.2686 26.5005L8.64882 17.8875C7.4898 16.7262 6.83887 15.1525 6.83887 13.5118C6.83887 11.8711 7.4898 10.2974 8.64882 9.1361L17.2798 0.499478C17.5158 0.263322 17.8166 0.10248 18.144 0.0373045C18.4715 -0.0278714 18.8109 0.00554802 19.1193 0.133334C19.4278 0.26112 19.6914 0.477529 19.8768 0.755178C20.0622 1.03283 20.1611 1.35924 20.1609 1.6931V1.6931Z" fill="#F0E7D5"/>
</g>
<defs>
<clipPath id="clip0_72_58">
<rect width="27" height="27" fill="white"/>
</clipPath>
</defs>
</svg>
