<svg width="27" height="27" viewBox="0 0 27 27" fill="none" xmlns="http://www.w3.org/2000/svg">
<g clip-path="url(#clip0_72_53)">
<path d="M6.83887 25.3125C6.83926 24.8651 7.01731 24.4362 7.33387 24.12L15.9649 15.489C16.2261 15.2278 16.4333 14.9178 16.5747 14.5765C16.7161 14.2352 16.7889 13.8694 16.7889 13.5C16.7889 13.1306 16.7161 12.7648 16.5747 12.4236C16.4333 12.0823 16.2261 11.7722 15.9649 11.511L7.34512 2.88564C7.03773 2.56738 6.86763 2.14111 6.87148 1.69865C6.87532 1.2562 7.0528 0.832952 7.36567 0.520075C7.67855 0.207199 8.1018 0.0297265 8.54425 0.0258817C8.98671 0.0220368 9.41298 0.192127 9.73124 0.499519L18.351 9.11814C19.51 10.2794 20.1609 11.8531 20.1609 13.4938C20.1609 15.1345 19.51 16.7082 18.351 17.8695L9.71999 26.5005C9.48433 26.7363 9.18409 26.8971 8.85717 26.9624C8.53025 27.0278 8.19129 26.9948 7.88308 26.8677C7.57486 26.7407 7.3112 26.5251 7.12536 26.2483C6.93952 25.9715 6.83983 25.6459 6.83887 25.3125V25.3125Z" fill="#F0E7D5"/>
</g>
<defs>
<clipPath id="clip0_72_53">
<rect width="27" height="27" fill="white"/>
</clipPath>
</defs>
</svg>
