<svg width="28" height="31" viewBox="0 0 28 31" fill="none" xmlns="http://www.w3.org/2000/svg">
<path d="M13.9463 1V0H13.9463L13.9463 1ZM24.0156 11.0693H25.0156V11.0693L24.0156 11.0693ZM14.3457 23.8223L14.796 24.7151L14.7964 24.715L14.3457 23.8223ZM13.5469 23.8223L13.0962 24.715L13.0965 24.7151L13.5469 23.8223ZM3.87695 11.0693L2.87695 11.0693V11.0693H3.87695ZM13.9463 6.75391V5.75391V6.75391ZM9.63086 11.0693L8.63086 11.0693V11.0693H9.63086ZM13.9463 15.3848V16.3848V15.3848ZM18.2617 11.0693H19.2617V11.0693L18.2617 11.0693ZM13.9463 1V2C18.9551 2 23.0156 6.06048 23.0156 11.0693L24.0156 11.0693L25.0156 11.0693C25.0156 4.95591 20.0597 0 13.9463 0V1ZM24.0156 11.0693H23.0156C23.0156 14.4094 21.264 17.1202 19.1819 19.1626C17.1023 21.2025 14.7866 22.4795 13.8951 22.9296L14.3457 23.8223L14.7964 24.715C15.7755 24.2207 18.2947 22.8343 20.5824 20.5904C22.8676 18.3489 25.0156 15.1554 25.0156 11.0693H24.0156ZM14.3457 23.8223L13.8954 22.9294C13.9064 22.9239 13.9242 22.9184 13.9463 22.9184C13.9683 22.9184 13.9862 22.9239 13.9972 22.9294L13.5469 23.8223L13.0965 24.7151C13.6339 24.9862 14.2587 24.9861 14.796 24.7151L14.3457 23.8223ZM13.5469 23.8223L13.9975 22.9296C13.106 22.4795 10.7903 21.2025 8.71068 19.1626C6.62853 17.1202 4.87695 14.4094 4.87695 11.0693H3.87695H2.87695C2.87695 15.1554 5.02502 18.3489 7.31017 20.5904C9.59784 22.8343 12.1171 24.2207 13.0962 24.715L13.5469 23.8223ZM3.87695 11.0693L4.87695 11.0693C4.87696 6.06049 8.93744 2.00001 13.9463 2L13.9463 1L13.9463 0C7.83287 1.3411e-05 2.87697 4.95592 2.87695 11.0693L3.87695 11.0693ZM13.9463 6.75391V5.75391C11.0107 5.75391 8.63087 8.13371 8.63086 11.0693L9.63086 11.0693L10.6309 11.0693C10.6309 9.23828 12.1152 7.75391 13.9463 7.75391V6.75391ZM9.63086 11.0693H8.63086C8.63086 14.005 11.0107 16.3848 13.9463 16.3848V15.3848V14.3848C12.1152 14.3848 10.6309 12.9004 10.6309 11.0693H9.63086ZM13.9463 15.3848V16.3848C16.8819 16.3848 19.2617 14.005 19.2617 11.0693H18.2617H17.2617C17.2617 12.9004 15.7774 14.3848 13.9463 14.3848V15.3848ZM18.2617 11.0693L19.2617 11.0693C19.2617 8.13371 16.8819 5.75391 13.9463 5.75391V6.75391V7.75391C15.7773 7.75391 17.2617 9.23828 17.2617 11.0693L18.2617 11.0693Z" fill="#DDDDDD"/>
<path d="M25.1582 23.2965C26.2944 23.9525 26.8926 24.6967 26.8926 25.4542C26.8926 26.2117 26.2944 26.9559 25.1582 27.6119C24.0219 28.2679 22.3876 28.8127 20.4195 29.1915C18.4514 29.5702 16.2189 29.7696 13.9463 29.7696C11.6738 29.7696 9.44125 29.5702 7.47316 29.1915C5.50507 28.8127 3.87076 28.2679 2.73448 27.6119C1.5982 26.9559 1 26.2117 1 25.4542C1 24.6967 1.5982 23.9525 2.73448 23.2965" stroke="#DDDDDD" stroke-width="2" stroke-linecap="round"/>
</svg>
