<svg width="161" height="60" viewBox="0 0 161 60" fill="none" xmlns="http://www.w3.org/2000/svg">
<path fill-rule="evenodd" clip-rule="evenodd" d="M160.016 58.9923C160.309 58.6994 160.309 58.228 160.309 57.2852L160.309 2.00001C160.309 1.0572 160.309 0.585796 160.016 0.292904C159.724 1.13929e-05 159.252 1.13517e-05 158.309 1.12692e-05L36.1762 5.92028e-07C35.4641 5.29779e-07 35.1081 4.98655e-07 34.78 0.118027C34.4518 0.23605 34.1774 0.462815 33.6284 0.916344L2.59214 26.559C0.863971 27.9868 -0.000119397 28.7007 -0.000119479 29.6426C-0.000119561 30.5845 0.86397 31.2984 2.59213 32.7263L33.6284 58.3689C34.1774 58.8224 34.4518 59.0492 34.78 59.1672C35.1081 59.2852 35.4641 59.2852 36.1762 59.2852L158.309 59.2852C159.252 59.2852 159.724 59.2852 160.016 58.9923ZM38.1264 19.7617C32.6693 19.7617 28.2455 24.1856 28.2455 29.6426C28.2455 35.0997 32.6693 39.5235 38.1264 39.5235C43.5834 39.5235 48.0072 35.0997 48.0072 29.6426C48.0072 24.1856 43.5834 19.7617 38.1264 19.7617Z" fill="#A30002"/>
</svg>
