<svg width="71" height="67" viewBox="0 0 71 67" fill="none" xmlns="http://www.w3.org/2000/svg">
<path d="M27.5934 12.0694C30.4955 5.066 31.9466 1.5643 34.2751 1.09083C34.8874 0.966337 35.5194 0.969857 36.1303 1.10116C38.4533 1.60054 39.8653 5.11818 42.6893 12.1535C44.2952 16.1543 45.0982 18.1547 46.6139 19.5207C47.0391 19.9038 47.501 20.2455 47.9932 20.541C49.748 21.5944 51.9448 21.8002 56.3384 22.2118C63.7759 22.9086 67.4947 23.257 68.6193 25.3496C68.8522 25.783 69.0095 26.2517 69.0849 26.7362C69.4485 29.0758 66.6997 31.5077 61.2021 36.3717L59.6754 37.7224C57.1051 39.9964 55.82 41.1334 55.0724 42.5571C54.624 43.4111 54.3213 44.3319 54.1766 45.2825C53.9354 46.8673 54.3007 48.5291 55.0311 51.8528L55.2921 53.0404C56.602 59.0009 57.2569 61.9811 56.4105 63.4395C55.6502 64.7496 54.2585 65.5832 52.726 65.6466C51.0198 65.7172 48.6271 63.7779 43.8418 59.8992C40.689 57.3437 39.1126 56.066 37.3576 55.5606C35.7537 55.0986 34.0502 55.0891 32.4413 55.5332C30.6807 56.0191 29.0902 57.2791 25.9092 59.7993C21.0809 63.6245 18.6668 65.537 16.9615 65.4474C15.4298 65.3669 14.0475 64.5179 13.3018 63.1995C12.4717 61.7317 13.1598 58.7589 14.536 52.8134L14.8102 51.6288C15.5776 48.3135 15.9613 46.6558 15.7377 45.0684C15.6036 44.1162 15.3113 43.1922 14.8724 42.3332C14.1407 40.9012 12.8683 39.75 10.3235 37.4475L8.81202 36.0799C3.36889 31.155 0.64733 28.6926 1.03702 26.3573C1.11773 25.8736 1.28033 25.4067 1.51805 24.9759C2.66584 22.896 6.38826 22.589 13.8331 21.9751C18.231 21.6124 20.4299 21.4311 22.1964 20.3973C22.6918 20.1074 23.1575 19.7708 23.5869 19.3925C25.1178 18.0434 25.943 16.0521 27.5934 12.0694Z" fill="#F5CE02" stroke="#F5CE02" stroke-width="2"/>
</svg>
