<svg width="16" height="28" viewBox="0 0 16 28" fill="none" xmlns="http://www.w3.org/2000/svg">
<path d="M9.34766 0C11.0045 0 12.3477 1.34315 12.3477 3V13.3906C12.3477 13.7051 12.4985 13.9984 12.7373 14.2031C14.3886 15.6186 15.4346 17.72 15.4346 20.0654C15.4345 24.3274 11.9798 27.782 7.71777 27.7822C3.45562 27.7822 8.53004e-05 24.3276 0 20.0654C0 17.72 1.04603 15.6186 2.69727 14.2031C2.93604 13.9984 3.08691 13.7051 3.08691 13.3906V3C3.08692 1.34316 4.43008 2.74468e-05 6.08691 0H9.34766ZM7.71777 3.62988C7.16568 3.62988 6.71808 4.07786 6.71777 4.62988V15.4346H8.71777V4.62988C8.71747 4.07798 8.2697 3.63008 7.71777 3.62988Z" fill="#212842"/>
</svg>
