<svg width="56" height="56" viewBox="0 0 56 56" fill="none" xmlns="http://www.w3.org/2000/svg">
<path d="M27.917 40.084C31.3841 40.084 34.7542 41.2282 37.5049 43.3389C40.1554 45.3727 42.0844 48.1954 43.0244 51.3945C38.6695 54.2026 33.484 55.834 27.917 55.834C22.3497 55.834 17.1636 54.2029 12.8086 51.3945C13.7486 48.1953 15.6785 45.3728 18.3291 43.3389C21.0797 41.2282 24.4499 40.084 27.917 40.084ZM27.917 0C43.3349 3.86552e-07 55.834 12.499 55.834 27.917C55.834 37.0157 51.48 45.0968 44.7432 50.1934C43.6227 46.851 41.5323 43.908 38.7227 41.752C35.6227 39.3733 31.8244 38.084 27.917 38.084C24.0096 38.084 20.2113 39.3733 17.1113 41.752C14.3016 43.908 12.2102 46.8509 11.0898 50.1934C4.35332 45.0967 2.28126e-07 37.0154 0 27.917C0 12.499 12.499 0 27.917 0ZM27.917 10.167C22.7393 10.167 18.542 14.3643 18.542 19.542C18.542 24.7197 22.7393 28.917 27.917 28.917C33.0947 28.917 37.292 24.7197 37.292 19.542C37.292 14.3643 33.0947 10.167 27.917 10.167ZM27.917 12.167C31.9901 12.167 35.292 15.4689 35.292 19.542C35.292 23.6151 31.9901 26.917 27.917 26.917C23.8439 26.917 20.542 23.6151 20.542 19.542C20.542 15.4689 23.8439 12.167 27.917 12.167Z" fill="#222222"/>
</svg>
